<svg viewBox="0 0 200 240" xmlns="http://www.w3.org/2000/svg">
  <defs>
    <radialGradient id="bg" cx="50%" cy="44%" r="47%">
      <stop offset="0%" stop-color="#ccfbf1" stop-opacity="0.5"/>
      <stop offset="100%" stop-color="#ccfbf1" stop-opacity="0"/>
    </radialGradient>
  </defs>
  <circle cx="100" cy="108" r="95" fill="url(#bg)"/>
  <!-- Uniform -->
  <path d="M 18,240 Q 36,202 88,194 Q 100,199 112,194 Q 164,202 182,240 Z" fill="#0D9488"/>
  <path d="M 88,194 Q 94,204 100,204 Q 106,204 112,194 L 109,190 Q 104,198 100,198 Q 96,198 91,190 Z" fill="#0B7A72"/>
  <!-- Stethoscope -->
  <path d="M 97,198 Q 90,212 85,219 Q 82,222 80,219" stroke="#0B7A72" stroke-width="2.5" fill="none" stroke-linecap="round"/>
  <circle cx="79" cy="222" r="5" fill="none" stroke="#0B7A72" stroke-width="2"/>
  <circle cx="79" cy="222" r="2" fill="#0B7A72"/>
  <!-- Neck -->
  <rect x="89" y="168" width="22" height="30" fill="#FDDBB4" rx="3"/>
  <!-- Left ear -->
  <ellipse cx="29" cy="100" rx="13" ry="17" fill="#FDDBB4"/>
  <ellipse cx="29" cy="100" rx="8" ry="11" fill="#EAB989"/>
  <!-- Right ear -->
  <ellipse cx="171" cy="100" rx="13" ry="17" fill="#FDDBB4"/>
  <ellipse cx="171" cy="100" rx="8" ry="11" fill="#EAB989"/>
  <!-- Head -->
  <ellipse cx="100" cy="100" rx="71" ry="74" fill="#FDDBB4"/>
  <!-- Hair main volume -->
  <path d="M 29,100 Q 27,30 100,22 Q 173,30 171,100 Q 168,57 100,52 Q 32,57 29,100 Z" fill="#1C1C2E"/>
  <path d="M 29,100 Q 22,77 26,52 Q 33,52 36,65 Q 31,83 29,100 Z" fill="#1C1C2E"/>
  <path d="M 171,100 Q 178,77 174,52 Q 167,52 164,65 Q 169,83 171,100 Z" fill="#1C1C2E"/>
  <!-- Bun -->
  <circle cx="100" cy="26" r="16" fill="#1C1C2E"/>
  <circle cx="100" cy="26" r="6" fill="#2D2D4E"/>
  <path d="M 88,24 Q 100,20 112,24" stroke="#3D3D5E" stroke-width="1.5" fill="none" stroke-linecap="round"/>
  <!-- Nose -->
  <path d="M 96,119 Q 100,127 104,119" stroke="#C9956A" stroke-width="1.5" fill="none" stroke-linecap="round"/>
  <ellipse cx="100" cy="129" rx="9" ry="5" fill="#EAB989" opacity="0.35"/>
  <!-- Eyebrows - warm, slight drooping ends -->
  <path d="M 62,77 Q 76,70 91,75" stroke="#1C1C2E" stroke-width="3" fill="none" stroke-linecap="round"/>
  <path d="M 109,75 Q 124,70 138,77" stroke="#1C1C2E" stroke-width="3" fill="none" stroke-linecap="round"/>
  <!-- Soft blush -->
  <ellipse cx="60" cy="126" rx="17" ry="10" fill="#FFAAAA" opacity="0.22"/>
  <ellipse cx="140" cy="126" rx="17" ry="10" fill="#FFAAAA" opacity="0.22"/>
</svg>
