<svg viewBox="0 0 200 240" xmlns="http://www.w3.org/2000/svg">
  <!-- Left arm -->
  <path d="M 24,240 Q 38,220 56,207" stroke="#FDDBB4" stroke-width="24" fill="none" stroke-linecap="round"/>
  <!-- Right arm -->
  <path d="M 176,240 Q 162,220 144,207" stroke="#FDDBB4" stroke-width="24" fill="none" stroke-linecap="round"/>
  <!-- Pressed hands together -->
  <path d="M 78,192 Q 78,172 100,165 Q 122,172 122,192 Q 120,206 100,212 Q 80,206 78,192 Z" fill="#FDDBB4"/>
  <!-- Finger detail lines -->
  <path d="M 89,167 L 88,183" stroke="#EAB989" stroke-width="2.5" stroke-linecap="round" opacity="0.8"/>
  <path d="M 95,165 L 94,180" stroke="#EAB989" stroke-width="2.5" stroke-linecap="round" opacity="0.8"/>
  <path d="M 100,164 L 100,179" stroke="#EAB989" stroke-width="2.5" stroke-linecap="round" opacity="0.8"/>
  <path d="M 105,165 L 106,180" stroke="#EAB989" stroke-width="2.5" stroke-linecap="round" opacity="0.8"/>
  <path d="M 111,167 L 112,183" stroke="#EAB989" stroke-width="2.5" stroke-linecap="round" opacity="0.8"/>
  <!-- Palm line detail -->
  <path d="M 82,195 Q 100,200 118,195" stroke="#EAB989" stroke-width="1.5" fill="none" stroke-linecap="round" opacity="0.6"/>
  <!-- Glow/aura -->
  <ellipse cx="100" cy="188" rx="28" ry="26" fill="#0D9488" opacity="0.07"/>
  <ellipse cx="100" cy="188" rx="36" ry="34" fill="#0D9488" opacity="0.04"/>
</svg>
